# xmcd
#
# Track frame offsets: 
#        187
#        14832
#        29012
#        44537
#        55690
#        70860
#        85822
#        100022
#
# Disc length: 1565 seconds
#
# Revision: 2
# Processed by: cddbd v1.5.2PL0 Copyright (c) Steve Scherf et al.
# Submitted via: ExactAudioCopy v1.1
#
DISCID=67061b08
DTITLE=Earl Thomas Conley - Fire And Smoke
DYEAR=1981
DGENRE=Country
TTITLE0=Fire And Smoke
TTITLE1=Silent Treatment
TTITLE2=Smokey Mountain Memories
TTITLE3=This Time I've Hurt Her More (Than She Loves Me)
TTITLE4=Tell Me Why (You Love Me Baby)
TTITLE5=After The Love Slips Away
TTITLE6=Your Love Is Just For Strangers (I Suppose)
TTITLE7=As Low As You Can Go
EXTD=
EXTT0=Earl Thomas Conley
EXTT1=
EXTT2=
EXTT3=
EXTT4=
EXTT5=
EXTT6=
EXTT7=
PLAYORDER=
